<mxfile host="Electron" modified="2024-04-12T08:01:10.463Z" agent="Mozilla/5.0 (Windows NT 10.0; Win64; x64) AppleWebKit/537.36 (KHTML, like Gecko) draw.io/24.0.4 Chrome/120.0.6099.109 Electron/28.1.0 Safari/537.36" etag="kAigPlMX7uJpJF9Hi6FI" version="24.0.4" type="device">
  <diagram name="Pagina-1" id="CxJ-FI4UJDIuuV96NwVs">
    <mxGraphModel dx="880" dy="532" grid="0" gridSize="10" guides="1" tooltips="1" connect="1" arrows="1" fold="1" page="1" pageScale="1" pageWidth="827" pageHeight="1169" math="0" shadow="0">
      <root>
        <mxCell id="0" />
        <mxCell id="1" parent="0" />
        <mxCell id="dd3beXFV8dAsGYv3o8cf-8" style="edgeStyle=orthogonalEdgeStyle;rounded=0;orthogonalLoop=1;jettySize=auto;html=1;exitX=0.5;exitY=1;exitDx=0;exitDy=0;entryX=0;entryY=0.5;entryDx=0;entryDy=0;" edge="1" parent="1" source="dd3beXFV8dAsGYv3o8cf-1" target="dd3beXFV8dAsGYv3o8cf-7">
          <mxGeometry relative="1" as="geometry" />
        </mxCell>
        <mxCell id="dd3beXFV8dAsGYv3o8cf-13" style="edgeStyle=orthogonalEdgeStyle;rounded=0;orthogonalLoop=1;jettySize=auto;html=1;entryX=0;entryY=0.5;entryDx=0;entryDy=0;" edge="1" parent="1" source="dd3beXFV8dAsGYv3o8cf-1" target="dd3beXFV8dAsGYv3o8cf-11">
          <mxGeometry relative="1" as="geometry" />
        </mxCell>
        <mxCell id="dd3beXFV8dAsGYv3o8cf-16" style="edgeStyle=orthogonalEdgeStyle;rounded=0;orthogonalLoop=1;jettySize=auto;html=1;exitX=0.5;exitY=1;exitDx=0;exitDy=0;entryX=0;entryY=0.5;entryDx=0;entryDy=0;" edge="1" parent="1" source="dd3beXFV8dAsGYv3o8cf-1" target="dd3beXFV8dAsGYv3o8cf-14">
          <mxGeometry relative="1" as="geometry" />
        </mxCell>
        <mxCell id="dd3beXFV8dAsGYv3o8cf-21" style="edgeStyle=orthogonalEdgeStyle;rounded=0;orthogonalLoop=1;jettySize=auto;html=1;entryX=0;entryY=0.5;entryDx=0;entryDy=0;" edge="1" parent="1" source="dd3beXFV8dAsGYv3o8cf-1" target="dd3beXFV8dAsGYv3o8cf-19">
          <mxGeometry relative="1" as="geometry" />
        </mxCell>
        <mxCell id="dd3beXFV8dAsGYv3o8cf-22" style="edgeStyle=orthogonalEdgeStyle;rounded=0;orthogonalLoop=1;jettySize=auto;html=1;exitX=1;exitY=0.5;exitDx=0;exitDy=0;endArrow=classic;endFill=1;" edge="1" parent="1" source="dd3beXFV8dAsGYv3o8cf-1" target="dd3beXFV8dAsGYv3o8cf-6">
          <mxGeometry relative="1" as="geometry" />
        </mxCell>
        <mxCell id="dd3beXFV8dAsGYv3o8cf-36" style="edgeStyle=orthogonalEdgeStyle;rounded=0;orthogonalLoop=1;jettySize=auto;html=1;entryX=0;entryY=0.5;entryDx=0;entryDy=0;" edge="1" parent="1" source="dd3beXFV8dAsGYv3o8cf-1" target="dd3beXFV8dAsGYv3o8cf-34">
          <mxGeometry relative="1" as="geometry" />
        </mxCell>
        <mxCell id="dd3beXFV8dAsGYv3o8cf-41" style="edgeStyle=orthogonalEdgeStyle;rounded=0;orthogonalLoop=1;jettySize=auto;html=1;entryX=0;entryY=0.5;entryDx=0;entryDy=0;" edge="1" parent="1" source="dd3beXFV8dAsGYv3o8cf-1" target="dd3beXFV8dAsGYv3o8cf-38">
          <mxGeometry relative="1" as="geometry" />
        </mxCell>
        <mxCell id="dd3beXFV8dAsGYv3o8cf-1" value="Personaggio" style="rounded=0;whiteSpace=wrap;html=1;" vertex="1" parent="1">
          <mxGeometry x="57" y="192" width="120" height="60" as="geometry" />
        </mxCell>
        <mxCell id="dd3beXFV8dAsGYv3o8cf-24" style="edgeStyle=orthogonalEdgeStyle;rounded=0;orthogonalLoop=1;jettySize=auto;html=1;exitX=0;exitY=0.5;exitDx=0;exitDy=0;entryX=1;entryY=0.5;entryDx=0;entryDy=0;endArrow=doubleBlock;endFill=1;" edge="1" parent="1" source="dd3beXFV8dAsGYv3o8cf-5" target="dd3beXFV8dAsGYv3o8cf-6">
          <mxGeometry relative="1" as="geometry" />
        </mxCell>
        <mxCell id="dd3beXFV8dAsGYv3o8cf-5" value="Squadra" style="rounded=0;whiteSpace=wrap;html=1;" vertex="1" parent="1">
          <mxGeometry x="637" y="192" width="120" height="60" as="geometry" />
        </mxCell>
        <mxCell id="dd3beXFV8dAsGYv3o8cf-6" value="Appartiene" style="rhombus;whiteSpace=wrap;html=1;" vertex="1" parent="1">
          <mxGeometry x="363" y="182" width="80" height="80" as="geometry" />
        </mxCell>
        <mxCell id="dd3beXFV8dAsGYv3o8cf-7" value="" style="ellipse;whiteSpace=wrap;html=1;aspect=fixed;" vertex="1" parent="1">
          <mxGeometry x="148" y="270" width="26" height="26" as="geometry" />
        </mxCell>
        <mxCell id="dd3beXFV8dAsGYv3o8cf-10" value="Costo" style="text;html=1;align=center;verticalAlign=middle;resizable=0;points=[];autosize=1;strokeColor=none;fillColor=none;" vertex="1" parent="1">
          <mxGeometry x="170" y="272" width="49" height="26" as="geometry" />
        </mxCell>
        <mxCell id="dd3beXFV8dAsGYv3o8cf-11" value="" style="ellipse;whiteSpace=wrap;html=1;aspect=fixed;" vertex="1" parent="1">
          <mxGeometry x="148" y="300" width="26" height="26" as="geometry" />
        </mxCell>
        <mxCell id="dd3beXFV8dAsGYv3o8cf-12" value="Nome" style="text;html=1;align=center;verticalAlign=middle;resizable=0;points=[];autosize=1;strokeColor=none;fillColor=none;" vertex="1" parent="1">
          <mxGeometry x="170" y="302" width="50" height="26" as="geometry" />
        </mxCell>
        <mxCell id="dd3beXFV8dAsGYv3o8cf-14" value="" style="ellipse;whiteSpace=wrap;html=1;aspect=fixed;fillColor=#000000;" vertex="1" parent="1">
          <mxGeometry x="148" y="331" width="26" height="26" as="geometry" />
        </mxCell>
        <mxCell id="dd3beXFV8dAsGYv3o8cf-15" value="Codice" style="text;html=1;align=center;verticalAlign=middle;resizable=0;points=[];autosize=1;strokeColor=none;fillColor=none;" vertex="1" parent="1">
          <mxGeometry x="168" y="333" width="55" height="26" as="geometry" />
        </mxCell>
        <mxCell id="dd3beXFV8dAsGYv3o8cf-19" value="" style="ellipse;whiteSpace=wrap;html=1;aspect=fixed;" vertex="1" parent="1">
          <mxGeometry x="148" y="363" width="26" height="26" as="geometry" />
        </mxCell>
        <mxCell id="dd3beXFV8dAsGYv3o8cf-20" value="Categoria" style="text;html=1;align=center;verticalAlign=middle;resizable=0;points=[];autosize=1;strokeColor=none;fillColor=none;" vertex="1" parent="1">
          <mxGeometry x="167" y="366" width="70" height="26" as="geometry" />
        </mxCell>
        <mxCell id="dd3beXFV8dAsGYv3o8cf-23" value="" style="endArrow=none;html=1;rounded=0;" edge="1" parent="1">
          <mxGeometry width="50" height="50" relative="1" as="geometry">
            <mxPoint x="200" y="247" as="sourcePoint" />
            <mxPoint x="200" y="197" as="targetPoint" />
          </mxGeometry>
        </mxCell>
        <mxCell id="dd3beXFV8dAsGYv3o8cf-26" value="" style="ellipse;whiteSpace=wrap;html=1;aspect=fixed;" vertex="1" parent="1">
          <mxGeometry x="709" y="272" width="26" height="26" as="geometry" />
        </mxCell>
        <mxCell id="dd3beXFV8dAsGYv3o8cf-27" value="NomeUtente" style="text;html=1;align=center;verticalAlign=middle;resizable=0;points=[];autosize=1;strokeColor=none;fillColor=none;" vertex="1" parent="1">
          <mxGeometry x="729" y="274" width="85" height="26" as="geometry" />
        </mxCell>
        <mxCell id="dd3beXFV8dAsGYv3o8cf-28" value="" style="ellipse;whiteSpace=wrap;html=1;aspect=fixed;" vertex="1" parent="1">
          <mxGeometry x="709" y="302" width="26" height="26" as="geometry" />
        </mxCell>
        <mxCell id="dd3beXFV8dAsGYv3o8cf-29" value="NomeSquadra" style="text;html=1;align=center;verticalAlign=middle;resizable=0;points=[];autosize=1;strokeColor=none;fillColor=none;" vertex="1" parent="1">
          <mxGeometry x="732" y="305" width="95" height="26" as="geometry" />
        </mxCell>
        <mxCell id="dd3beXFV8dAsGYv3o8cf-30" value="" style="ellipse;whiteSpace=wrap;html=1;aspect=fixed;fillColor=#000000;" vertex="1" parent="1">
          <mxGeometry x="709" y="333" width="26" height="26" as="geometry" />
        </mxCell>
        <mxCell id="dd3beXFV8dAsGYv3o8cf-31" value="Codice" style="text;html=1;align=center;verticalAlign=middle;resizable=0;points=[];autosize=1;strokeColor=none;fillColor=none;" vertex="1" parent="1">
          <mxGeometry x="729" y="335" width="55" height="26" as="geometry" />
        </mxCell>
        <mxCell id="dd3beXFV8dAsGYv3o8cf-34" value="" style="ellipse;whiteSpace=wrap;html=1;aspect=fixed;" vertex="1" parent="1">
          <mxGeometry x="148" y="392" width="26" height="26" as="geometry" />
        </mxCell>
        <mxCell id="dd3beXFV8dAsGYv3o8cf-35" value="SquadraRIF" style="text;html=1;align=center;verticalAlign=middle;resizable=0;points=[];autosize=1;strokeColor=none;fillColor=none;" vertex="1" parent="1">
          <mxGeometry x="168" y="396" width="83" height="26" as="geometry" />
        </mxCell>
        <mxCell id="dd3beXFV8dAsGYv3o8cf-37" value="" style="endArrow=none;html=1;rounded=0;edgeStyle=orthogonalEdgeStyle;curved=1;" edge="1" parent="1" source="dd3beXFV8dAsGYv3o8cf-42">
          <mxGeometry width="50" height="50" relative="1" as="geometry">
            <mxPoint x="130" y="429" as="sourcePoint" />
            <mxPoint x="90" y="324" as="targetPoint" />
            <Array as="points">
              <mxPoint x="90" y="322" />
              <mxPoint x="90" y="322" />
            </Array>
          </mxGeometry>
        </mxCell>
        <mxCell id="dd3beXFV8dAsGYv3o8cf-38" value="" style="ellipse;whiteSpace=wrap;html=1;aspect=fixed;" vertex="1" parent="1">
          <mxGeometry x="148" y="422" width="26" height="26" as="geometry" />
        </mxCell>
        <mxCell id="dd3beXFV8dAsGYv3o8cf-39" value="Img" style="text;html=1;align=center;verticalAlign=middle;resizable=0;points=[];autosize=1;strokeColor=none;fillColor=none;" vertex="1" parent="1">
          <mxGeometry x="172" y="425" width="38" height="26" as="geometry" />
        </mxCell>
        <mxCell id="dd3beXFV8dAsGYv3o8cf-47" value="" style="endArrow=none;html=1;rounded=0;edgeStyle=orthogonalEdgeStyle;curved=1;" edge="1" parent="1" target="dd3beXFV8dAsGYv3o8cf-42">
          <mxGeometry width="50" height="50" relative="1" as="geometry">
            <mxPoint x="130" y="429" as="sourcePoint" />
            <mxPoint x="90" y="324" as="targetPoint" />
            <Array as="points">
              <mxPoint x="130" y="430" />
              <mxPoint x="120" y="430" />
              <mxPoint x="120" y="377" />
              <mxPoint x="129" y="377" />
            </Array>
          </mxGeometry>
        </mxCell>
        <mxCell id="dd3beXFV8dAsGYv3o8cf-42" value="" style="ellipse;whiteSpace=wrap;html=1;aspect=fixed;fillColor=#000000;" vertex="1" parent="1">
          <mxGeometry x="76" y="309" width="26" height="26" as="geometry" />
        </mxCell>
      </root>
    </mxGraphModel>
  </diagram>
</mxfile>
